<svg id="Gradient" height="512" viewBox="0 0 512 512" width="512" xmlns="http://www.w3.org/2000/svg" xmlns:xlink="http://www.w3.org/1999/xlink"><linearGradient id="linear-gradient" gradientUnits="userSpaceOnUse" x1="256" x2="256" y1="432" y2="80"><stop offset="0" stop-color="#12c2e9"/><stop offset=".5" stop-color="#c471ed"/><stop offset="1" stop-color="#f64f59"/></linearGradient><path d="m319.99 432a32 32 0 0 1 -22.631-54.63l121.39-121.378-121.39-121.378a32 32 0 0 1 45.261-45.257l144.021 144.007a32.035 32.035 0 0 1 0 45.257l-144.021 144.006a31.8 31.8 0 0 1 -22.63 9.373zm0-336.007a16 16 0 0 0 -11.316 27.307l127.048 127.035a8 8 0 0 1 0 11.314l-127.048 127.035a16 16 0 0 0 22.631 22.629l144.021-144.006a16 16 0 0 0 0-22.629l-144.021-144.007a15.956 15.956 0 0 0 -11.315-4.678zm-136 336.007a32 32 0 0 1 -22.631-54.63l121.39-121.378-121.39-121.378a32 32 0 0 1 45.261-45.257l144.021 144.007a32.035 32.035 0 0 1 0 45.257l-144.021 144.006a31.8 31.8 0 0 1 -22.63 9.373zm0-336.007a16 16 0 0 0 -11.316 27.307l127.048 127.035a8 8 0 0 1 0 11.314l-127.048 127.035a16 16 0 0 0 22.631 22.629l144.021-144.006a16 16 0 0 0 0-22.629l-144.021-144.007a15.956 15.956 0 0 0 -11.315-4.678zm-136 336.007a31.8 31.8 0 0 1 -22.631-9.372 32.035 32.035 0 0 1 0-45.257l121.39-121.378-121.39-121.379a32 32 0 0 1 45.261-45.257l144.021 144.007a32.035 32.035 0 0 1 0 45.257l-144.021 144.006a31.8 31.8 0 0 1 -22.63 9.373zm-11.316-20.687a16.005 16.005 0 0 0 22.631 0l144.021-144.006a16 16 0 0 0 0-22.629l-144.021-144.007a16 16 0 0 0 -22.631 22.629l127.048 127.035a8 8 0 0 1 0 11.314l-127.048 127.035a16.019 16.019 0 0 0 0 22.629z" fill="url(#linear-gradient)"/></svg>