<svg id="Gradient" height="512" viewBox="0 0 512 512" width="512" xmlns="http://www.w3.org/2000/svg" xmlns:xlink="http://www.w3.org/1999/xlink"><linearGradient id="linear-gradient" gradientUnits="userSpaceOnUse" x1="256" x2="256" y1="496" y2="16"><stop offset="0" stop-color="#12c2e9"/><stop offset=".5" stop-color="#c471ed"/><stop offset="1" stop-color="#f64f59"/></linearGradient><path d="m256.012 496a31.793 31.793 0 0 1 -22.63-9.372l-208.023-208.007a32.036 32.036 0 0 1 0-45.256l208.023-208.007a32 32 0 0 1 45.26 45.256l-185.394 185.379 185.393 185.377a32 32 0 0 1 -22.629 54.63zm0-464.015a15.9 15.9 0 0 0 -11.312 4.688l-208.027 208.006a16.019 16.019 0 0 0 0 22.628l208.027 208.006a16 16 0 1 0 22.63-22.629l-191.054-191.034a8 8 0 0 1 0-11.315l191.051-191.035a16 16 0 0 0 -11.315-27.315zm207.999 464.015a31.793 31.793 0 0 1 -22.629-9.372l-208.023-208.007a32.036 32.036 0 0 1 0-45.256l208.023-208.007a32.041 32.041 0 0 1 45.259 0 32.036 32.036 0 0 1 0 45.255l-185.393 185.38 185.393 185.377a32 32 0 0 1 -22.63 54.63zm0-464.015a15.9 15.9 0 0 0 -11.311 4.688l-208.027 208.006a16.019 16.019 0 0 0 0 22.628l208.027 208.006a16 16 0 1 0 22.63-22.629l-191.054-191.034a8 8 0 0 1 0-11.315l191.051-191.035a16 16 0 0 0 -11.316-27.315z" fill="url(#linear-gradient)"/></svg>